<svg width="20" height="20" viewBox="0 0 20 20" fill="none" xmlns="http://www.w3.org/2000/svg">
<g clip-path="url(#clip0_22_6549)">
<path d="M6.28906 5.33179L3.16406 3.45679V16.5433L6.28906 14.6683V5.33179Z" fill="#92E200"/>
<path d="M7.10875 3.71176L5.21886 0.522583L3.62836 2.36872L6.72332 4.22567L7.10875 3.71176Z" fill="#92E200"/>
<path d="M6.72332 15.7744L3.62836 17.6313L5.21886 19.4774L7.10875 16.2883L6.72332 15.7744Z" fill="#92E200"/>
<path d="M12.8913 16.2883L14.7811 19.4774L16.3716 17.6313L13.2767 15.7744L12.8913 16.2883Z" fill="#92E200"/>
<path d="M13.7109 14.6683L16.8359 16.5433V3.45679L13.7109 5.33179V14.6683Z" fill="#92E200"/>
<path d="M8.14636 16.8359L6.27136 20H13.7286L11.8536 16.8359H8.14636Z" fill="#92E200"/>
<path d="M7.46094 5.19531V14.8047L8.10547 15.6641H11.8945L12.5391 14.8047V5.19531L11.8945 4.33594H8.10547L7.46094 5.19531Z" fill="#92E200"/>
<path d="M11.8536 3.16406L13.7286 0H6.27136L8.14636 3.16406H11.8536Z" fill="#92E200"/>
<path d="M13.2767 4.22567L16.3716 2.36872L14.7811 0.522583L12.8913 3.71176L13.2767 4.22567Z" fill="#92E200"/>
<path d="M1.5625 10.5859C1.88609 10.5859 2.14844 10.3236 2.14844 10C2.14844 9.67641 1.88609 9.41406 1.5625 9.41406H0.585938C0.262344 9.41406 0 9.67641 0 10C0 10.3236 0.262344 10.5859 0.585938 10.5859H1.5625Z" fill="#92E200"/>
<path d="M1.35179 5.52318C1.123 5.29436 0.751989 5.29436 0.523161 5.52318C0.294333 5.75201 0.294333 6.12299 0.523161 6.35182L1.14816 6.97682C1.26257 7.09123 1.41254 7.14842 1.5625 7.14842C1.71246 7.14842 1.86242 7.09123 1.97679 6.97678C2.20562 6.74795 2.20562 6.37697 1.97679 6.14814L1.35179 5.52318Z" fill="#92E200"/>
<path d="M1.14821 13.0232L0.523206 13.6482C0.294378 13.877 0.294378 14.248 0.523206 14.4769C0.637581 14.5913 0.787542 14.6485 0.937503 14.6485C1.08746 14.6485 1.23743 14.5913 1.3518 14.4768L1.9768 13.8518C2.20563 13.623 2.20563 13.252 1.9768 13.0232C1.74801 12.7944 1.377 12.7944 1.14821 13.0232Z" fill="#92E200"/>
<path d="M19.4141 9.41406H18.4375C18.1139 9.41406 17.8516 9.67641 17.8516 10C17.8516 10.3236 18.1139 10.5859 18.4375 10.5859H19.4141C19.7377 10.5859 20 10.3236 20 10C20 9.67641 19.7377 9.41406 19.4141 9.41406Z" fill="#92E200"/>
<path d="M18.4375 7.14846C18.5875 7.14846 18.7374 7.09127 18.8518 6.97682L19.4768 6.35182C19.7056 6.12299 19.7056 5.75201 19.4768 5.52318C19.248 5.29436 18.877 5.29436 18.6482 5.52318L18.0232 6.14818C17.7943 6.37701 17.7943 6.74799 18.0232 6.97682C18.1376 7.09127 18.2875 7.14846 18.4375 7.14846Z" fill="#92E200"/>
<path d="M18.8518 13.0232C18.623 12.7944 18.252 12.7944 18.0232 13.0232C17.7943 13.252 17.7943 13.623 18.0232 13.8518L18.6482 14.4768C18.7626 14.5912 18.9125 14.6484 19.0625 14.6484C19.2125 14.6484 19.3624 14.5912 19.4768 14.4768C19.7056 14.2479 19.7056 13.877 19.4768 13.6481L18.8518 13.0232Z" fill="#92E200"/>
</g>
<defs>
<clipPath id="clip0_22_6549">
<rect width="20" height="20" fill="white"/>
</clipPath>
</defs>
</svg>
