<svg width="184" height="80" viewBox="0 0 184 80" fill="none" xmlns="http://www.w3.org/2000/svg">
<path d="M0 8C0 3.58172 3.58172 0 8 0H176C180.418 0 184 3.58172 184 8V72C184 76.4183 180.418 80 176 80H8C3.58172 80 0 76.4183 0 72V8Z" fill="#33334F"/>
<g clip-path="url(#clip0_5_1971)">
<path d="M117.222 46.2895C113.749 60.2182 99.64 68.695 85.7081 65.2216C71.782 61.7491 63.3043 47.6407 66.7787 33.7131C70.2501 19.7829 84.3592 11.3055 98.2868 14.778C112.218 18.2505 120.695 32.3604 117.222 46.2898L117.222 46.2895H117.222Z" fill="white" fill-opacity="0.5"/>
<path d="M103.466 36.2962C103.984 32.8362 101.349 30.9763 97.7466 29.7355L98.9152 25.0486L96.0619 24.3377L94.9242 28.9012C94.174 28.7142 93.4037 28.5379 92.638 28.3631L93.784 23.7695L90.9324 23.0586L89.763 27.744C89.1423 27.6027 88.5326 27.463 87.9411 27.3158L87.9444 27.3011L84.0095 26.3186L83.2504 29.3659C83.2504 29.3659 85.3674 29.8511 85.3228 29.8809C86.4783 30.1693 86.6872 30.9341 86.6525 31.5403L85.3213 36.8798C85.4008 36.9 85.504 36.9292 85.6179 36.975C85.5227 36.9513 85.4214 36.9255 85.3163 36.9004L83.4504 44.3803C83.3092 44.7313 82.9507 45.258 82.1429 45.058C82.1715 45.0994 80.069 44.5405 80.069 44.5405L78.6523 47.8064L82.3656 48.7319C83.0564 48.9051 83.7333 49.0864 84.3999 49.2568L83.2192 53.9975L86.0693 54.7084L87.2386 50.018C88.0172 50.2294 88.7728 50.4243 89.5125 50.6081L88.3471 55.2763L91.2007 55.9872L92.3813 51.2555C97.2469 52.1762 100.906 51.805 102.445 47.4045C103.686 43.8616 102.384 41.8181 99.8239 40.4855C101.688 40.0555 103.093 38.8294 103.467 36.2966L103.466 36.296L103.466 36.2962ZM96.9467 45.437C96.0649 48.9799 90.0991 47.0647 88.1649 46.5844L89.7318 40.3039C91.6658 40.7867 97.8683 41.7421 96.9468 45.437H96.9467ZM97.8292 36.2449C97.0248 39.4675 92.0593 37.8303 90.4486 37.4288L91.8692 31.7327C93.4799 32.1342 98.6671 32.8835 97.8294 36.2449H97.8292Z" fill="white" fill-opacity="0.5"/>
</g>
<defs>
<clipPath id="clip0_5_1971">
<rect width="52" height="52" fill="white" transform="translate(66 14)"/>
</clipPath>
</defs>
</svg>
