<svg width="184" height="80" viewBox="0 0 184 80" fill="none" xmlns="http://www.w3.org/2000/svg">
<path d="M0 8C0 3.58172 3.58172 0 8 0H176C180.418 0 184 3.58172 184 8V72C184 76.4183 180.418 80 176 80H8C3.58172 80 0 76.4183 0 72V8Z" fill="#33334F"/>
<g opacity="0.7" clip-path="url(#clip0_5_1922)">
<path d="M117.625 46.9093C115.484 46.9093 113.906 45.9072 113.453 44.1272C113.031 45.9072 111.437 46.9093 109.312 46.9093C105.797 46.9093 104.062 44.6956 104.062 41.6892V32.7148H107.484V41.8836C107.484 43.3345 108.016 44.3067 109.609 44.3067C111.125 44.3067 111.734 43.3345 111.766 41.8836V32.7148H115.172V41.8836C115.172 43.3345 115.797 44.3067 117.328 44.3067C118.922 44.3067 119.453 43.3345 119.453 41.8836V32.7148H122.875V41.6892C122.875 44.6956 121.141 46.9093 117.625 46.9093Z" fill="white"/>
<path d="M73.8437 36.2597C74.6094 35.2277 75.0156 33.9862 75.0156 32.7148H63.9844V35.2127H70.7969L64.9062 43.1401C64.1406 44.1721 63.7344 45.4136 63.7344 46.6849H74.7656V44.1871H67.9531L73.8437 36.2597Z" fill="white"/>
<path d="M168.859 37.6358V41.2255C168.859 41.5097 168.859 41.7939 168.859 42.0781C168.859 42.6465 168.953 43.1401 169.172 43.514L169.187 43.5589C169.266 43.6785 169.344 43.7982 169.453 43.8879C169.516 43.9478 169.578 44.0076 169.656 44.0525C169.687 44.0824 169.734 44.0973 169.781 44.1272L169.797 44.1422L169.844 44.1721C170.266 44.4114 170.766 44.4862 171.25 44.4862C171.5 44.4862 171.75 44.4563 172 44.4114V46.8794C171.75 46.9093 171.5 46.9093 171.25 46.9093C168.547 46.9093 166.453 45.623 165.766 43.5738L165.75 43.5439C165.641 43.155 165.578 42.7512 165.547 42.3174C165.547 42.2426 165.531 42.1529 165.531 42.0781V42.0631C165.531 41.9734 165.531 41.8836 165.531 41.7939C165.531 40.8366 165.531 37.6358 165.531 37.6358H163.469V35.2127H165.531V32.7148H168.859V35.1977H172V37.6358H168.859Z" fill="white"/>
<path d="M79.8594 40.0005C79.8594 38.1009 81.0938 37.6373 82.2344 37.6373C83.4063 37.6373 84.6406 38.1009 84.6406 40.0005H79.8594ZM86.5469 36.7099C86.4844 36.6501 86.4219 36.5902 86.3437 36.5304C86.0312 36.2612 85.6719 36.0368 85.2813 35.8424C85.0938 35.7526 84.9062 35.6779 84.7031 35.6031C84.6406 35.5881 84.5781 35.5582 84.5156 35.5432C83.8281 35.3189 83.0625 35.1992 82.2344 35.1992C82.0156 35.1992 81.7969 35.2142 81.5938 35.2291C81.4688 35.2441 81.3594 35.259 81.2344 35.259C80.7656 35.3189 80.3281 35.4086 79.9219 35.5582C79.7656 35.6031 79.625 35.6629 79.4687 35.7227C79.3281 35.7826 79.1875 35.8573 79.0469 35.9172C78.6406 36.1266 78.2656 36.3808 77.9531 36.68C77.0469 37.5176 76.5156 38.6843 76.5156 40.0753V41.0475V42.0197C76.5156 42.0646 76.5313 42.0945 76.5313 42.1394C76.5469 42.5432 76.5938 42.9321 76.6875 43.2911V43.321C77.2969 45.5197 79.4531 46.8958 82.2656 46.8958C84.5781 46.8958 86.4531 45.9535 87.375 44.383V44.368C87.5156 44.1287 87.625 43.8894 87.7188 43.6351H84.2344C83.9531 44.024 83.5469 44.2633 83.1094 44.368C82.8438 44.4428 82.5469 44.4578 82.2656 44.4578C81.7813 44.4578 81.2656 44.383 80.8594 44.1437L80.8125 44.1137C80.4688 43.9343 80.2344 43.6351 80.0781 43.2761C80.0469 43.1864 80 43.0817 79.9844 42.992C79.9688 42.9321 79.9531 42.8573 79.9375 42.7826C79.8906 42.5881 79.875 42.3488 79.875 42.1095V42.0496H88V42.0197V41.0475V40.0753C87.9844 38.7142 87.4531 37.5625 86.5469 36.7099Z" fill="white"/>
<path d="M132.656 43.066C132.641 43.2156 132.594 43.3502 132.516 43.4699C132.203 43.9635 131.391 44.5019 130.125 44.5019C129.25 44.5019 128.484 44.0233 128.484 43.1408C128.484 42.2583 129.188 41.7049 130.422 41.7049H132.656V42.4229C132.672 42.6323 132.688 42.8417 132.656 43.066ZM135.938 39.91C135.938 39.7306 135.922 39.566 135.906 39.3865C135.891 39.2669 135.875 39.1472 135.859 39.0276C135.844 38.9677 135.828 38.9079 135.828 38.8481C135.828 38.7882 135.797 38.7284 135.797 38.6835V38.6536C135.203 36.4998 133.094 35.1387 130.328 35.1387C128.859 35.1387 127.578 35.5126 126.609 36.2006C126.297 36.425 126.016 36.6793 125.766 36.9635L128.281 38.5041C128.563 38.0105 129 37.7412 129.5 37.6216C129.562 37.6066 129.641 37.5917 129.703 37.5767C129.906 37.5468 130.109 37.5318 130.328 37.5318C130.562 37.5318 130.813 37.5468 131.047 37.6066C131.109 37.6216 131.156 37.6365 131.219 37.6515C131.391 37.6964 131.547 37.7712 131.703 37.8609L131.75 37.8908L131.766 37.9058C131.797 37.9207 131.828 37.9506 131.859 37.9656C132.078 38.1002 132.234 38.2797 132.344 38.4891C132.375 38.534 132.391 38.5639 132.406 38.6088C132.422 38.6536 132.438 38.6835 132.453 38.7284C132.484 38.8182 132.531 38.9079 132.547 39.0126C132.562 39.0724 132.578 39.1472 132.594 39.207C132.609 39.2519 132.609 39.3117 132.625 39.3566V39.3716C132.641 39.4763 132.656 39.566 132.656 39.6857C132.656 39.7455 132.656 39.8053 132.656 39.8652V39.925H129.578C127.203 39.925 125.203 40.9122 125.203 43.3502C125.203 45.6536 127.297 46.91 129.437 46.91C130.609 46.91 131.859 46.581 132.656 45.7583V46.7006H135.938V40.1045C135.953 40.0297 135.953 39.9699 135.938 39.91Z" fill="white"/>
<path d="M54.1562 40.0005C54.1562 38.1009 55.3906 37.6373 56.5313 37.6373C57.7031 37.6373 58.9375 38.1009 58.9375 40.0005H54.1562ZM60.8438 36.7099C60.7813 36.6501 60.7187 36.5902 60.6406 36.5304C60.3281 36.2612 59.9688 36.0368 59.5781 35.8424C59.3906 35.7526 59.2031 35.6779 59 35.6031C58.9375 35.5881 58.875 35.5582 58.8125 35.5432C58.125 35.3189 57.3594 35.1992 56.5313 35.1992C56.3125 35.1992 56.0938 35.2142 55.8906 35.2291C55.7656 35.2441 55.6563 35.259 55.5313 35.259C55.0625 35.3189 54.625 35.4086 54.2188 35.5582C54.0625 35.6031 53.9219 35.6629 53.7656 35.7227C53.625 35.7826 53.4844 35.8573 53.3438 35.9172C52.9375 36.1266 52.5625 36.3808 52.25 36.68C51.3438 37.5176 50.8125 38.6843 50.8125 40.0753V41.0475V42.0197C50.8125 42.0646 50.8281 42.0945 50.8281 42.1394C50.8438 42.5432 50.8906 42.9321 50.9844 43.2911V43.321C51.5938 45.5197 53.75 46.8958 56.5625 46.8958C58.875 46.8958 60.75 45.9535 61.6719 44.383V44.368C61.7031 44.3082 61.75 44.2334 61.7813 44.1736C61.875 43.9941 61.9531 43.8146 62.0156 43.6351H58.5312C58.25 44.024 57.8438 44.2633 57.4063 44.368C57.1406 44.4428 56.8438 44.4578 56.5625 44.4578C56.0781 44.4578 55.5625 44.383 55.1563 44.1437L55.1094 44.1137C54.7656 43.9343 54.5313 43.6351 54.375 43.2761C54.3438 43.1864 54.2969 43.0817 54.2656 42.992C54.25 42.9321 54.2344 42.8573 54.2188 42.7826C54.1719 42.5881 54.1562 42.3488 54.1562 42.1095V42.0496H62.2812V42.0197V41.0475V40.0753C62.2812 38.7142 61.75 37.5625 60.8438 36.7099Z" fill="white"/>
<path d="M93.4219 40.0005C93.4219 38.1009 94.6562 37.6373 95.7969 37.6373C96.9687 37.6373 98.2031 38.1009 98.2031 40.0005H93.4219ZM100.109 36.7099C100.047 36.6501 99.9844 36.5902 99.9062 36.5304C99.5937 36.2612 99.2344 36.0368 98.8437 35.8424C98.6562 35.7526 98.4687 35.6779 98.2656 35.6031C98.2031 35.5881 98.1406 35.5582 98.0781 35.5432C97.3906 35.3189 96.625 35.1992 95.7969 35.1992C95.5781 35.1992 95.3594 35.2142 95.1563 35.2291C95.0313 35.2441 94.9219 35.259 94.7969 35.259C94.3281 35.3189 93.8906 35.4086 93.4844 35.5582C93.3281 35.6031 93.1875 35.6629 93.0312 35.7227C92.8906 35.7826 92.75 35.8573 92.6094 35.9172C92.2031 36.1266 91.8437 36.3808 91.5156 36.68C90.6094 37.5176 90.0781 38.6843 90.0781 40.0753V41.0475V42.0197C90.0781 42.0646 90.0937 42.0945 90.0937 42.1394C90.1094 42.5432 90.1562 42.9321 90.25 43.2911V43.321C90.8594 45.5197 93.0156 46.8958 95.8281 46.8958C98.1406 46.8958 100.016 45.9535 100.938 44.383V44.368C101.078 44.1287 101.188 43.8894 101.281 43.6351H97.7812C97.5 44.024 97.0937 44.2633 96.6562 44.368C96.3906 44.4428 96.0938 44.4578 95.8125 44.4578C95.3281 44.4578 94.8125 44.383 94.4063 44.1437L94.3594 44.1137C94.0156 43.9343 93.7813 43.6351 93.625 43.2761C93.5938 43.1864 93.5469 43.0817 93.5156 42.992C93.5 42.9321 93.4844 42.8573 93.4688 42.7826C93.4219 42.5881 93.4062 42.3488 93.4062 42.1095V42.0496H101.531V42.0197V41.0475V40.0753C101.547 38.7142 101.016 37.5625 100.109 36.7099Z" fill="white"/>
<path d="M153.812 40.0005C153.812 38.1009 155.047 37.6373 156.187 37.6373C157.359 37.6373 158.594 38.1009 158.594 40.0005H153.812ZM160.5 36.7099C160.438 36.6501 160.375 36.5902 160.297 36.5304C159.984 36.2612 159.625 36.0368 159.234 35.8424C159.047 35.7526 158.859 35.6779 158.656 35.6031C158.594 35.5881 158.531 35.5582 158.469 35.5432C157.781 35.3189 157.016 35.1992 156.187 35.1992C155.969 35.1992 155.75 35.2142 155.547 35.2291C155.422 35.2441 155.313 35.259 155.188 35.259C154.719 35.3189 154.281 35.4086 153.875 35.5582C153.719 35.6031 153.578 35.6629 153.422 35.7227C153.281 35.7826 153.141 35.8573 153 35.9172C152.594 36.1266 152.219 36.3808 151.906 36.68C151 37.5176 150.469 38.6843 150.469 40.0753V41.0475V42.0197C150.469 42.0646 150.484 42.0945 150.484 42.1394C150.5 42.5432 150.547 42.9321 150.641 43.2911V43.321C151.25 45.5197 153.406 46.8958 156.219 46.8958C158.531 46.8958 160.406 45.9535 161.328 44.383V44.368C161.469 44.1287 161.578 43.8894 161.672 43.6351H158.187C157.906 44.024 157.5 44.2633 157.063 44.368C156.797 44.4428 156.5 44.4578 156.219 44.4578C155.734 44.4578 155.219 44.383 154.812 44.1437L154.766 44.1137C154.422 43.9343 154.187 43.6351 154.031 43.2761C154 43.1864 153.953 43.0817 153.938 42.992C153.922 42.9321 153.906 42.8573 153.891 42.7826C153.844 42.5881 153.828 42.3488 153.828 42.1095V42.0496H161.953V42.0197V41.0475V40.0753C161.938 38.7142 161.406 37.5625 160.5 36.7099Z" fill="white"/>
<path d="M140.094 46.6849H142V32.7148H138.672V45.3388C138.672 46.0866 139.297 46.6849 140.094 46.6849Z" fill="white"/>
<path d="M145.875 46.6849H147.781V32.7148H144.453V45.3388C144.453 46.0866 145.094 46.6849 145.875 46.6849Z" fill="white"/>
<path d="M22.9531 43.3648C22.9531 44.352 23.7813 45.1447 24.8125 45.1447H39.6562V41.5998H24.8125C23.7813 41.5849 22.9531 42.3776 22.9531 43.3648Z" fill="white"/>
<path d="M39.6406 34.4805H24.7969C23.7656 34.4805 22.9375 35.2732 22.9375 36.2604C22.9375 37.2476 23.7656 38.0403 24.7969 38.0403H39.6406V34.4805Z" fill="white"/>
<path d="M18.2183 33.2546C17.9527 33.7183 17.8277 34.2418 17.8277 34.7653C17.812 36.1114 18.687 37.1285 19.8433 37.8166C20.7027 38.355 21.5308 38.9832 21.5308 40.0003C21.5308 41.0174 20.7027 41.6456 19.8433 42.1841C18.7027 42.8721 17.8277 43.8892 17.8277 45.2354C17.8277 45.7589 17.9527 46.2824 18.2183 46.746C19.0464 48.2418 20.7808 48.6755 22.4214 48.6755H41.4839V54.0003H22.1245C21.8589 54.0003 21.5933 54.0003 21.312 54.0003C19.0308 54.0153 16.6402 53.5217 14.812 52.1456C13.7652 51.3678 12.9527 50.3358 12.4995 49.1243C11.437 46.3871 12.0777 43.7097 14.2808 41.7204C14.4995 41.511 14.7339 41.3166 14.937 41.0922C15.1558 40.8529 15.3589 40.5837 15.4527 40.2696C15.4839 40.1798 15.4995 40.12 15.4995 40.0003C15.4995 39.8807 15.4839 39.8208 15.4527 39.7311C15.3589 39.417 15.1558 39.1478 14.937 38.9084C14.7339 38.6841 14.4995 38.4896 14.2808 38.2802C12.0777 36.2909 11.437 33.5986 12.4995 30.8764C12.9683 29.6798 13.7652 28.6328 14.8277 27.855C16.6558 26.4939 19.0464 25.9854 21.3277 26.0003C21.5933 26.0003 21.8589 26.0003 22.1402 26.0003H41.4995V31.3251H22.437C20.7808 31.3251 19.0464 31.7589 18.2183 33.2546Z" fill="white"/>
</g>
<defs>
<clipPath id="clip0_5_1922">
<rect width="160" height="28" fill="white" transform="translate(12 26)"/>
</clipPath>
</defs>
</svg>
