<svg width="184" height="80" viewBox="0 0 184 80" fill="none" xmlns="http://www.w3.org/2000/svg">
<path d="M0 8C0 3.58172 3.58172 0 8 0H176C180.418 0 184 3.58172 184 8V72C184 76.4183 180.418 80 176 80H8C3.58172 80 0 76.4183 0 72V8Z" fill="#33334F"/>
<g clip-path="url(#clip0_5_1940)">
<g opacity="0.7">
<path d="M139 13H45V66H139V13Z" fill="white" fill-opacity="0.5"/>
<path d="M105.314 54.1456C105.147 54.1785 104.978 54.202 104.808 54.2159C103.426 54.2159 102.044 54.2441 100.662 54.2159C100.387 54.1531 100.149 53.9821 99.9982 53.7405C98.7735 51.9935 97.5766 50.2269 96.3713 48.4658C96.2635 48.3083 96.1474 48.1592 95.9345 47.8666C95.9069 48.2998 95.8737 48.5812 95.8737 48.8653C95.8737 50.4829 95.8737 52.0976 95.8903 53.7152C95.8903 54.1456 95.7714 54.3059 95.3374 54.2778C94.2731 54.2441 93.2061 54.2778 92.1418 54.2609C91.9566 54.2609 91.7686 54.2441 91.5281 54.2328V53.6167C91.5281 48.041 91.5216 42.4635 91.5087 36.884C91.5087 35.7475 91.4922 34.611 91.459 33.4745C91.459 33.1003 91.5779 32.9822 91.9428 32.985C93.0485 32.985 94.1764 32.985 95.2904 32.9428C95.7327 32.9259 95.8571 33.0609 95.8433 33.5054C95.8267 36.2933 95.8433 39.0811 95.8433 41.8718V44.5724L96.0202 44.6259C96.2967 44.2714 96.5537 43.9198 96.8136 43.5625C97.8751 42.0884 98.9394 40.6171 99.9843 39.1317C100.078 38.9762 100.213 38.8502 100.373 38.7678C100.533 38.6854 100.712 38.6497 100.891 38.6648C102.024 38.6901 103.161 38.6648 104.294 38.6648C104.535 38.6648 104.775 38.6873 105.123 38.7041C104.919 39.0248 104.775 39.2668 104.606 39.5059C103.047 41.6411 101.491 43.7791 99.9069 45.8974C99.5946 46.3166 99.578 46.5951 99.9069 47.0227C101.718 49.352 103.473 51.7066 105.314 54.1456Z" fill="white"/>
<path d="M90.0603 38.6951L83.2102 60.3255H78.6351C78.9392 59.3521 79.235 58.4013 79.5335 57.4505C79.8321 56.4996 80.1611 55.5009 80.4485 54.5163C80.4974 54.3169 80.4819 54.1068 80.4043 53.9171C78.3642 49.0447 76.3213 44.1733 74.2757 39.3027C74.2066 39.1452 74.1596 38.9792 74.0684 38.7176H75.047C76.1306 38.7176 77.2115 38.7176 78.2951 38.7007C78.4457 38.6693 78.6025 38.6971 78.7338 38.7785C78.8651 38.8599 78.9612 38.9889 79.0028 39.1396C80.1279 41.8627 81.2834 44.5774 82.4334 47.2977C82.4721 47.3962 82.5191 47.4919 82.6048 47.6747C82.7264 47.3428 82.837 47.0783 82.9227 46.8083C83.7188 44.2764 84.5177 41.7446 85.3028 39.2127C85.4134 38.8554 85.5571 38.667 85.9801 38.6782C87.3097 38.7148 88.6532 38.6951 90.0603 38.6951Z" fill="white"/>
<path d="M65.7333 33.0098V37.041C65.336 37.0702 64.9408 37.1247 64.5502 37.2042C63.6932 37.4349 63.3421 37.8597 63.309 38.7458C63.2758 39.632 63.309 40.5912 63.309 41.604H65.7748C65.7748 42.7292 65.7748 43.7476 65.7582 44.7744C65.7582 44.8813 65.4818 45.0557 65.3463 45.0754C64.705 45.1064 64.0609 45.0754 63.3642 45.0754C63.3421 45.3567 63.3062 45.5902 63.3062 45.8294C63.3062 48.4765 63.3062 51.1265 63.3062 53.7737C63.3062 54.2013 63.179 54.3364 62.7782 54.3364C61.6724 54.3364 60.5667 54.3364 59.4775 54.3364C59.3269 54.3243 59.1773 54.3017 59.0297 54.2688V52.8623C59.0297 50.4654 59.0297 48.0799 59.0297 45.6662C59.0297 45.1936 58.8832 45.0585 58.4271 45.0698C57.3434 45.0951 57.3434 45.0698 57.3379 43.9445C57.3379 43.4663 57.3379 42.9852 57.3379 42.507C57.3379 42.2004 57.4512 42.071 57.7387 42.0035C59.2813 41.6518 59.0103 41.8093 58.9938 40.3915C58.9551 39.3101 59.0208 38.2275 59.19 37.1592C59.6019 34.9087 61.197 33.4711 63.4444 33.1589C64.1797 33.0604 64.9289 33.0604 65.7333 33.0098Z" fill="white"/>
<path d="M72.5883 54.2671H68.3008V33.084H72.5883V54.2671Z" fill="white"/>
<path d="M113.325 38.6721C113.112 38.9985 112.977 39.2348 112.814 39.4542C111.243 41.6034 109.682 43.7583 108.081 45.8851C107.747 46.3296 107.805 46.6052 108.114 47.0103C109.792 49.1877 111.431 51.3904 113.09 53.5819C113.203 53.7338 113.306 53.8913 113.452 54.1023C113.317 54.1354 113.181 54.1598 113.043 54.1755C111.683 54.1952 110.32 54.2261 108.96 54.2092C108.83 54.1994 108.703 54.1627 108.587 54.1013C108.471 54.0399 108.368 53.955 108.286 53.852C106.627 51.458 105.018 49.0443 103.379 46.6418C103.261 46.5153 103.195 46.3477 103.195 46.1734C103.195 45.9991 103.261 45.8315 103.379 45.705C104.999 43.5051 106.601 41.2921 108.186 39.066C108.264 38.9324 108.377 38.8234 108.512 38.7509C108.647 38.6784 108.799 38.6453 108.952 38.6552C110.138 38.6552 111.324 38.6215 112.51 38.6074C112.745 38.613 112.98 38.6468 113.325 38.6721Z" fill="white"/>
<path d="M115.782 43.864C115.766 43.622 115.746 43.4504 115.746 43.2816C115.746 41.8751 115.746 40.4375 115.746 39.0169C115.726 38.8792 115.756 38.7388 115.829 38.6212C115.902 38.5035 116.014 38.4163 116.144 38.3755C117.303 37.8944 118.453 37.3909 119.605 36.8929C119.782 36.817 119.954 36.7326 120.227 36.6116L117.336 35.1291C117.336 35.717 117.336 36.2093 117.336 36.6988C117.336 37.6075 117.336 37.6075 116.385 37.8241V33.3652C117.142 33.7506 117.842 34.0967 118.533 34.4539C119.417 34.9125 120.294 35.3851 121.181 35.8324C121.318 35.8798 121.435 35.9727 121.514 36.0962C121.593 36.2197 121.628 36.3666 121.615 36.5132C121.596 37.9001 121.615 39.2841 121.615 40.671C121.616 40.7657 121.598 40.8595 121.56 40.9463C121.523 41.0331 121.468 41.1109 121.399 41.1746C119.65 42.0495 117.889 42.8962 116.131 43.7486C116.045 43.7852 115.954 43.8049 115.782 43.864Z" fill="white"/>
<path d="M121.084 29.7325H121.538C122.475 29.7325 123.346 28.4694 123.011 27.572C122.677 26.6746 122.334 25.7856 121.994 24.8938C121.654 24.0021 121.317 23.1159 120.977 22.227C121.687 21.9456 121.872 22.0525 122.11 22.7361C122.583 24.0808 123.072 25.4199 123.586 26.8518C123.846 26.0838 124.081 25.389 124.319 24.6941C124.531 24.0546 124.746 23.4179 124.966 22.784C125.223 22.0244 125.242 22.016 126.11 22.1791C125.748 23.1947 125.397 24.2018 125.035 25.2061C124.598 26.4186 124.161 27.6339 123.711 28.8407C123.243 30.0954 122.679 30.5286 121.579 30.4892C121.021 30.4723 120.954 30.3795 121.084 29.7325Z" fill="white"/>
<path d="M106.986 29.7134C108.05 29.9103 108.545 29.3167 108.882 28.3659C109.123 27.6851 108.738 27.204 108.551 26.678C108.02 25.187 107.42 23.7185 106.848 22.2388C107.586 21.9828 107.721 22.0306 107.953 22.672C108.404 23.9154 108.841 25.1673 109.283 26.4135C109.322 26.5233 109.374 26.6301 109.46 26.8327C109.789 25.8847 110.088 25.0295 110.383 24.1714C110.549 23.6876 110.709 23.2009 110.878 22.7199C111.124 22.0194 111.174 21.9941 111.984 22.2079C111.547 23.4381 111.109 24.6656 110.671 25.8903C110.3 26.9199 109.935 27.9523 109.548 28.9848C109.128 30.0932 108.542 30.5264 107.539 30.5039C106.903 30.4786 106.873 30.442 106.986 29.7134Z" fill="white"/>
<path d="M124.993 36.5712C123.995 36.5459 123.282 35.7019 123.335 34.602C123.347 34.1376 123.534 33.6957 123.858 33.3683C124.182 33.0409 124.617 32.853 125.074 32.8438C125.95 32.8691 126.732 33.7496 126.732 34.7089C126.71 35.7863 125.95 36.5965 124.993 36.5712ZM123.666 34.7229C123.654 35.107 123.788 35.481 124.043 35.7653C124.297 36.0495 124.65 36.2216 125.027 36.2449C125.701 36.2449 126.348 35.5359 126.376 34.7511C126.395 34.3798 126.272 34.0154 126.031 33.7357C125.79 33.456 125.452 33.2833 125.087 33.2545C124.275 33.2095 123.694 33.8171 123.666 34.7229Z" fill="white"/>
<path d="M120.321 24.0158C120.019 22.491 118.922 21.7287 117.501 22.0859C117.098 22.2406 116.713 22.4406 116.354 22.6823V19.7285H115.541V27.8698C116.135 28.0921 116.263 27.7151 116.318 27.2228C116.459 27.3325 116.539 27.3916 116.616 27.4563C116.891 27.7112 117.225 27.8908 117.586 27.978C117.948 28.0652 118.325 28.0572 118.683 27.9547C119.041 27.8523 119.367 27.6587 119.631 27.3923C119.895 27.1259 120.087 26.7955 120.191 26.4323C120.44 25.6521 120.485 24.819 120.321 24.0158ZM119.378 26.0694C119.32 26.4247 119.13 26.7439 118.848 26.9611C118.566 27.1783 118.212 27.277 117.86 27.2368C117.031 27.1806 116.531 26.722 116.478 25.864C116.433 25.1631 116.465 24.4593 116.572 23.7654C116.677 23.1324 117.153 22.8286 117.78 22.8061C118.629 22.778 119.057 22.9946 119.278 23.6501C119.398 24.0721 119.49 24.5015 119.555 24.9357C119.486 25.3773 119.461 25.729 119.378 26.0694Z" fill="white"/>
<path d="M99.5078 20.4889C98.3578 20.0022 97.1525 20.2357 95.9473 20.2076V27.8734C96.8319 27.9831 96.8346 27.9831 96.8346 27.1645V24.9562C97.3488 24.9168 97.8519 24.8999 98.3467 24.8352C99.3585 24.7058 100.177 24.2979 100.517 23.2148C100.857 22.1318 100.431 20.8771 99.5078 20.4889ZM98.6287 23.9547C98.0758 24.0644 97.5008 24.0757 96.854 24.1376V20.9699C97.4371 20.9822 98.0193 21.0245 98.5983 21.0965C99.3281 21.2231 99.6875 21.7154 99.7041 22.4778C99.7392 22.8163 99.6482 23.1559 99.449 23.4294C99.2499 23.7029 98.9572 23.8903 98.6287 23.9547Z" fill="white"/>
<path d="M105.968 23.3833C105.963 23.1416 105.889 22.9067 105.755 22.707C105.621 22.5073 105.433 22.3514 105.214 22.258C104.172 21.7995 103.185 22.0302 102.173 22.5112C102.283 22.7756 102.372 22.9782 102.466 23.2004C102.746 23.072 103.034 22.963 103.328 22.8741C104.5 22.6153 105.291 22.8741 105.106 24.3791C104.556 24.3843 104.008 24.437 103.467 24.5367C102.917 24.6608 102.399 24.9014 101.946 25.2428C101.443 25.6648 101.44 26.6156 101.775 27.212C101.971 27.5198 102.255 27.7589 102.588 27.8968C102.922 28.0347 103.29 28.0647 103.641 27.9828C104.187 27.8019 104.72 27.579 105.233 27.3161C105.269 27.4399 105.33 27.6565 105.393 27.8787H105.979C105.985 26.3596 106.01 24.8715 105.968 23.3833ZM103.154 27.2064C102.981 27.1757 102.822 27.0872 102.704 26.9548C102.585 26.8224 102.513 26.6536 102.499 26.475C102.452 26.0333 102.521 25.5747 102.941 25.4425C103.593 25.264 104.259 25.1481 104.932 25.0965C105.012 25.0965 105.125 25.3778 105.153 25.4313C105.131 26.7506 104.158 27.5243 103.154 27.2064Z" fill="white"/>
<path d="M125.382 34.9173H125.532C125.559 34.6107 125.689 34.2646 125.592 34.0086C125.391 33.4854 124.887 33.7273 124.467 33.6908C124.351 35.0973 124.401 35.5925 124.719 35.7838C124.741 35.5024 124.758 35.2436 124.777 34.9876L124.893 34.9004C125.023 35.072 125.139 35.2521 125.28 35.4096C125.408 35.5388 125.543 35.6609 125.684 35.7753L125.789 35.6459L125.382 34.9173ZM125.36 34.3547L125.1 34.5263L124.771 34.7457V34.0987L124.896 33.9552L125.36 34.3462V34.3547Z" fill="white"/>
</g>
</g>
<defs>
<clipPath id="clip0_5_1940">
<rect width="94" height="53" fill="white" transform="translate(45 13)"/>
</clipPath>
</defs>
</svg>
