<svg width="20" height="20" viewBox="0 0 20 20" fill="none" xmlns="http://www.w3.org/2000/svg">
<g clip-path="url(#clip0_5_781)">
<path d="M15.8877 10.5988C15.8877 7.35223 13.2464 4.71094 9.99981 4.71094C2.19951 5.00694 2.20163 16.1918 9.99989 16.4866C13.2464 16.4866 15.8877 13.8453 15.8877 10.5988ZM14.1213 12.3651H12.9437V11.1876H11.6649C11.4872 11.6886 11.0896 12.0862 10.5886 12.2639V13.5427H11.7662V14.7203H8.23346V13.5427H9.41103V12.2639C8.91001 12.0862 8.51242 11.6886 8.33473 11.1876H7.05589V12.3651H5.87832V8.83243H7.05589V10.01H8.33473C8.51242 9.50898 8.91001 9.1114 9.41103 8.9337V7.65486H8.23346V6.47729H11.7662V7.65486H10.5886V8.9337C11.0896 9.1114 11.4872 9.50898 11.6649 10.01H12.9437V8.83243H14.1213V12.3651Z" fill="#92E200"/>
<path d="M2.95884 11.1875H0.597656C0.726286 13.287 1.54144 15.2549 2.93513 16.8305L4.60712 15.1585C3.68324 14.0676 3.08374 12.694 2.95884 11.1875Z" fill="#92E200"/>
<path d="M9.99894 10.0098C9.67429 10.0098 9.41016 10.2739 9.41016 10.5986C9.43975 11.3786 10.5583 11.3784 10.5877 10.5986C10.5877 10.2739 10.3236 10.0098 9.99894 10.0098Z" fill="#92E200"/>
<path d="M4.60701 6.03914L2.93505 4.36719C1.57186 5.91118 0.730565 7.88981 0.597656 10.0101H2.95876C3.08362 8.50364 3.68312 7.13 4.60701 6.03914Z" fill="#92E200"/>
<path d="M3.76758 17.6622C5.34317 19.0559 7.31104 19.8711 9.41053 19.9997V17.6385C7.90407 17.5136 6.53043 16.9141 5.43957 15.9902L3.76758 17.6622Z" fill="#92E200"/>
<path d="M17.0409 10.0101H19.4019C19.2749 7.98452 18.4903 5.98226 17.0645 4.36719L15.3926 6.03914C16.3165 7.13004 16.916 8.50368 17.0409 10.0101Z" fill="#92E200"/>
<path d="M17.0409 11.1875C16.916 12.694 16.3165 14.0676 15.3926 15.1585L17.0646 16.8305C18.4583 15.2549 19.2734 13.287 19.402 11.1875H17.0409Z" fill="#92E200"/>
<path d="M10.5879 17.6385V19.9997C12.6874 19.8711 14.6553 19.0559 16.2308 17.6622L14.5589 15.9902C13.468 16.9141 12.0943 17.5136 10.5879 17.6385Z" fill="#92E200"/>
<path d="M8.66784 3.65808L7.27988 1.57617C5.98467 1.96712 4.78504 2.63598 3.76758 3.53325L5.43914 5.20481C6.34803 4.43515 7.45325 3.89072 8.66784 3.65808Z" fill="#92E200"/>
<path d="M14.5587 5.20485L16.2303 3.53325C15.2129 2.63598 14.0132 1.96712 12.718 1.57617L11.3301 3.65808C12.5447 3.89072 13.6499 4.43515 14.5587 5.20485Z" fill="#92E200"/>
<path d="M12.3548 0H7.64453L9.99967 3.53271L12.3548 0Z" fill="#92E200"/>
</g>
<defs>
<clipPath id="clip0_5_781">
<rect width="20" height="20" fill="white"/>
</clipPath>
</defs>
</svg>
