<svg width="184" height="80" viewBox="0 0 184 80" fill="none" xmlns="http://www.w3.org/2000/svg">
<path d="M0 8C0 3.58172 3.58172 0 8 0H176C180.418 0 184 3.58172 184 8V72C184 76.4183 180.418 80 176 80H8C3.58172 80 0 76.4183 0 72V8Z" fill="#33334F"/>
<g opacity="0.7" clip-path="url(#clip0_5_1905)">
<path fill-rule="evenodd" clip-rule="evenodd" d="M121.86 58.6896C121.876 58.4346 121.967 58.1896 122.123 57.9847C122.279 57.7798 122.493 57.6239 122.739 57.5364C122.985 57.4489 123.252 57.4336 123.506 57.4923C123.761 57.551 123.993 57.6811 124.172 57.8667C124.352 58.0522 124.472 58.2851 124.518 58.5365C124.564 58.788 124.533 59.047 124.43 59.2816C124.326 59.5162 124.155 59.7162 123.937 59.8568C123.718 59.9975 123.462 60.0726 123.201 60.0731C123.027 60.0756 122.854 60.0446 122.692 59.9819C122.53 59.9192 122.383 59.8261 122.258 59.7078C122.133 59.5895 122.034 59.4484 121.965 59.2925C121.896 59.1366 121.859 58.969 121.857 58.7992C121.857 58.7652 121.857 58.7274 121.86 58.6896ZM125.447 58.6896V56.5085H124.483V57.0339C124.316 56.8249 124.1 56.658 123.853 56.5475C123.607 56.437 123.336 56.386 123.065 56.3989C122.449 56.3989 121.858 56.6378 121.422 57.0631C120.986 57.4885 120.741 58.0654 120.741 58.6669C120.741 59.2684 120.986 59.8453 121.422 60.2706C121.858 60.6959 122.449 60.9349 123.065 60.9349C123.334 60.9476 123.601 60.8969 123.845 60.787C124.09 60.6771 124.303 60.5113 124.467 60.3036V60.8291H125.432L125.447 58.6896ZM157.984 58.6896C157.998 58.4337 158.089 58.1875 158.245 57.9814C158.402 57.7754 158.616 57.6185 158.863 57.5301C159.109 57.4418 159.377 57.4258 159.633 57.4843C159.888 57.5427 160.121 57.6729 160.301 57.8589C160.482 58.0449 160.603 58.2785 160.649 58.5308C160.695 58.783 160.665 59.043 160.561 59.2785C160.458 59.5141 160.286 59.7148 160.067 59.856C159.847 59.9972 159.591 60.0727 159.328 60.0731C159.154 60.0761 158.98 60.0453 158.818 59.9827C158.655 59.92 158.507 59.8266 158.382 59.7078C158.257 59.5891 158.157 59.4473 158.088 59.2908C158.019 59.1342 157.982 58.9658 157.98 58.7954C157.98 58.7601 157.981 58.7247 157.984 58.6896ZM162.652 60.6438V60.7119H162.768C162.77 60.7078 162.771 60.7032 162.771 60.6986C162.771 60.6941 162.77 60.6895 162.768 60.6854C162.77 60.682 162.771 60.6781 162.771 60.6741C162.771 60.6701 162.77 60.6662 162.768 60.6627C162.756 60.659 162.744 60.659 162.733 60.6627L162.652 60.6438ZM162.714 60.5985C162.741 60.5984 162.768 60.6063 162.791 60.6212C162.807 60.6361 162.817 60.6563 162.818 60.6779C162.819 60.6875 162.818 60.6974 162.815 60.7066C162.812 60.7159 162.806 60.7241 162.799 60.7308C162.791 60.7393 162.781 60.746 162.771 60.7506C162.76 60.7552 162.748 60.7574 162.737 60.7572L162.822 60.8517H162.768L162.686 60.7572H162.663V60.8517H162.605V60.5796L162.714 60.5985ZM162.714 60.9387C162.741 60.9463 162.771 60.9463 162.799 60.9387C162.825 60.9282 162.849 60.9128 162.868 60.8934C162.888 60.8739 162.904 60.8507 162.915 60.8253C162.934 60.7715 162.934 60.7128 162.915 60.659C162.891 60.609 162.85 60.5688 162.799 60.5456C162.772 60.5343 162.743 60.5285 162.714 60.5285C162.684 60.5285 162.655 60.5343 162.628 60.5456C162.602 60.556 162.578 60.5714 162.559 60.5909C162.539 60.6103 162.523 60.6335 162.512 60.659C162.499 60.6848 162.492 60.7132 162.492 60.7421C162.492 60.771 162.499 60.7995 162.512 60.8253C162.522 60.8513 162.537 60.875 162.557 60.8946C162.577 60.9142 162.602 60.9292 162.628 60.9387C162.654 60.9526 162.684 60.9592 162.714 60.9576V60.9387ZM162.714 60.4511C162.752 60.4509 162.79 60.4587 162.826 60.4737C162.876 60.4957 162.919 60.5311 162.95 60.5759C162.981 60.6207 162.998 60.6731 163 60.727C163.001 60.7635 162.993 60.7997 162.977 60.8328C162.962 60.8652 162.941 60.8946 162.915 60.9198C162.89 60.9457 162.859 60.9663 162.826 60.9803C162.753 61.0066 162.674 61.0066 162.601 60.9803C162.566 60.9674 162.534 60.9467 162.508 60.9198C162.481 60.8965 162.461 60.8665 162.45 60.8328C162.434 60.7997 162.426 60.7635 162.427 60.727C162.427 60.6905 162.435 60.6545 162.45 60.6212C162.463 60.5885 162.483 60.5588 162.508 60.5342C162.536 60.5098 162.567 60.4894 162.601 60.4737C162.637 60.4587 162.675 60.4509 162.714 60.4511ZM161.582 58.6896V54.7734H160.637V57.0415C160.471 56.8379 160.257 56.6756 160.014 56.5678C159.771 56.4601 159.506 56.41 159.239 56.4215C158.623 56.4215 158.032 56.6605 157.596 57.0858C157.16 57.5112 156.915 58.088 156.915 58.6896C156.915 59.2911 157.16 59.868 157.596 60.2933C158.032 60.7186 158.623 60.9576 159.239 60.9576C159.507 60.9697 159.774 60.9187 160.017 60.8088C160.261 60.6989 160.473 60.5334 160.637 60.3263V60.8517H161.606L161.582 58.6896ZM137.397 57.2418C137.687 57.2357 137.968 57.342 138.179 57.5374C138.389 57.7329 138.512 58.0017 138.52 58.2851H136.235C136.258 58.0003 136.391 57.7347 136.606 57.5413C136.822 57.3478 137.104 57.2409 137.397 57.2418ZM137.416 56.3989C136.119 56.3989 135.212 57.3212 135.212 58.6669C135.193 58.9459 135.23 59.2259 135.321 59.4909C135.413 59.7559 135.557 60.0008 135.745 60.2114C135.934 60.422 136.163 60.5944 136.42 60.7185C136.677 60.8426 136.956 60.9162 137.242 60.9349C137.319 60.9349 137.401 60.9349 137.482 60.9349C138.143 60.9562 138.789 60.7411 139.299 60.3301L138.826 59.6346C138.46 59.9211 138.006 60.0807 137.536 60.0882C137.218 60.1148 136.901 60.0191 136.654 59.8214C136.406 59.6238 136.248 59.3398 136.211 59.0298H139.5C139.5 58.9088 139.519 58.7916 139.519 58.6518C139.519 57.3023 138.659 56.3837 137.416 56.3837V56.3989ZM149.036 58.6669C149.051 58.4107 149.142 58.1642 149.298 57.958C149.455 57.7518 149.67 57.5949 149.917 57.5068C150.164 57.4187 150.432 57.4032 150.688 57.4622C150.944 57.5213 151.176 57.6523 151.357 57.839C151.537 58.0257 151.657 58.26 151.702 58.5127C151.748 58.7655 151.716 59.0257 151.611 59.2611C151.507 59.4964 151.334 59.6967 151.113 59.837C150.893 59.9773 150.636 60.0515 150.373 60.0504C150.198 60.0534 150.025 60.0227 149.862 59.96C149.7 59.8973 149.552 59.8039 149.426 59.6852C149.301 59.5664 149.201 59.4247 149.132 59.2681C149.063 59.1115 149.027 58.9431 149.025 58.7727C149.027 58.7373 149.031 58.7019 149.036 58.6669ZM152.623 58.6669V56.5085H151.659V57.0339C151.494 56.8275 151.281 56.6623 151.038 56.5519C150.795 56.4415 150.528 56.3891 150.26 56.3989C149.644 56.3989 149.053 56.6378 148.617 57.0631C148.181 57.4885 147.936 58.0654 147.936 58.6669C147.936 59.2684 148.181 59.8453 148.617 60.2706C149.053 60.6959 149.644 60.9349 150.26 60.9349C150.528 60.947 150.795 60.896 151.039 60.7861C151.282 60.6762 151.495 60.5107 151.659 60.3036V60.8291H152.623V58.6669ZM143.598 58.6669C143.586 58.9529 143.631 59.2384 143.732 59.5073C143.833 59.7761 143.987 60.0229 144.185 60.2336C144.384 60.4442 144.623 60.6146 144.889 60.7349C145.155 60.8553 145.443 60.9232 145.736 60.9349C145.811 60.9406 145.886 60.9406 145.961 60.9349C146.539 60.9628 147.106 60.7795 147.553 60.4208L147.092 59.6648C146.757 59.9102 146.349 60.0428 145.93 60.0428C145.572 60.017 145.237 59.86 144.993 59.6034C144.749 59.3468 144.613 59.0095 144.613 58.6593C144.613 58.3091 144.749 57.9718 144.993 57.7152C145.237 57.4586 145.572 57.3017 145.93 57.2758C146.348 57.2795 146.755 57.4118 147.092 57.6538L147.553 56.8978C147.107 56.5377 146.539 56.3531 145.961 56.38C145.368 56.348 144.786 56.5469 144.343 56.9331C143.9 57.3194 143.632 57.8613 143.598 58.4401C143.594 58.5093 143.594 58.5787 143.598 58.648V58.6669ZM156.016 56.3989C155.782 56.3948 155.551 56.4514 155.347 56.563C155.143 56.6746 154.973 56.8371 154.854 57.0339V56.5085H153.901V60.8328H154.866V58.4061C154.866 57.6916 155.18 57.2947 155.811 57.2947C156.017 57.293 156.22 57.3302 156.411 57.4043L156.71 56.516C156.489 56.4414 156.258 56.4018 156.024 56.3989H156.016ZM130.192 56.8525C129.647 56.5365 129.021 56.3791 128.387 56.3989C127.264 56.3989 126.543 56.9243 126.543 57.7823C126.543 58.4892 127.078 58.9164 128.07 59.06L128.527 59.1243C129.053 59.1961 129.301 59.3322 129.301 59.5741C129.301 59.9105 128.949 60.0995 128.29 60.0995C127.76 60.1151 127.24 59.9553 126.815 59.6459L126.357 60.3792C126.922 60.7687 127.603 60.9653 128.294 60.9387C129.572 60.9387 130.312 60.3528 130.312 59.5287C130.312 58.7727 129.727 58.372 128.763 58.236L128.306 58.1717C127.891 58.1188 127.558 58.0356 127.558 57.7483C127.558 57.461 127.872 57.2418 128.399 57.2418C128.885 57.2529 129.36 57.3829 129.782 57.6198L130.192 56.8525ZM142.626 56.3989C142.392 56.3932 142.16 56.4491 141.956 56.5609C141.751 56.6726 141.581 56.836 141.464 57.0339V56.5085H140.507V60.8328H141.464V58.4061C141.464 57.6916 141.778 57.2947 142.409 57.2947C142.616 57.2934 142.821 57.3306 143.013 57.4043L143.308 56.516C143.087 56.4414 142.856 56.4018 142.622 56.3989H142.626ZM134.406 56.5085H132.826V55.1968H131.854V56.5085H130.955V57.3665H131.854V59.3397C131.854 60.3452 132.241 60.9387 133.403 60.9387C133.829 60.9431 134.247 60.8276 134.608 60.606L134.329 59.8009C134.071 59.9526 133.778 60.0372 133.477 60.0466C132.997 60.0466 132.838 59.7555 132.838 59.3208V57.3665H134.414L134.406 56.5085ZM120.001 60.8328V58.1188C120.016 57.9066 119.987 57.6937 119.917 57.4923C119.847 57.291 119.737 57.1052 119.593 56.9456C119.449 56.7861 119.274 56.6559 119.078 56.5627C118.882 56.4695 118.669 56.4151 118.452 56.4026C118.382 56.397 118.312 56.397 118.243 56.4026C117.939 56.384 117.636 56.4441 117.364 56.5769C117.091 56.7097 116.86 56.9104 116.693 57.1586C116.54 56.9168 116.324 56.7192 116.067 56.5862C115.809 56.4533 115.52 56.3899 115.229 56.4026C114.974 56.3912 114.721 56.4444 114.494 56.557C114.266 56.6696 114.072 56.8378 113.932 57.0452V56.5085H112.994V60.8328H113.962V58.4363C113.962 57.6803 114.389 57.3023 115.047 57.3023C115.706 57.3023 116.012 57.7067 116.012 58.4363V60.8442H116.984V58.4476C116.964 58.3007 116.978 58.1512 117.024 58.0101C117.071 57.8689 117.149 57.7395 117.252 57.6312C117.356 57.5228 117.483 57.4381 117.624 57.3832C117.765 57.3283 117.917 57.3046 118.068 57.3136C118.707 57.3136 119.041 57.7181 119.041 58.4476V60.8555L120.001 60.8328Z" fill="white"/>
<path fill-rule="evenodd" clip-rule="evenodd" d="M131.307 33.8707C131.304 31.6195 131.825 29.397 132.832 27.3715C133.838 25.3459 135.304 23.5703 137.117 22.179C134.869 20.4548 132.17 19.3826 129.327 19.0849C126.484 18.7872 123.613 19.276 121.041 20.4956C118.469 21.7151 116.301 23.6161 114.784 25.9813C113.267 28.3465 112.463 31.0804 112.463 33.8707C112.463 36.6609 113.267 39.3949 114.784 41.7601C116.301 44.1253 118.469 46.0263 121.041 47.2458C123.613 48.4653 126.484 48.9542 129.327 48.6565C132.17 48.3588 134.869 47.2865 137.117 45.5623C135.303 44.1714 133.837 42.3959 132.831 40.3702C131.824 38.3446 131.303 36.122 131.307 33.8707Z" fill="white"/>
<path fill-rule="evenodd" clip-rule="evenodd" d="M161.799 33.8716C161.801 36.6625 160.999 39.3976 159.483 41.7639C157.966 44.1303 155.798 46.0323 153.226 47.2522C150.654 48.4721 147.782 48.9607 144.939 48.662C142.095 48.3633 139.396 47.2895 137.148 45.5633C138.959 44.1697 140.423 42.3936 141.429 40.3686C142.436 38.3436 142.958 36.1222 142.958 33.8716C142.958 31.6211 142.436 29.3997 141.429 27.3747C140.423 25.3497 138.959 23.5736 137.148 22.18C139.396 20.4569 142.096 19.3856 144.938 19.0885C147.78 18.7914 150.651 19.2805 153.222 20.4999C155.793 21.7193 157.96 23.6198 159.477 25.9843C160.994 28.3489 161.798 31.0821 161.799 33.8716Z" fill="white" fill-opacity="0.5"/>
<path fill-rule="evenodd" clip-rule="evenodd" d="M159.281 48.7417V47.2637H158.893L158.44 48.2805L157.987 47.2637H157.6V48.7417H157.879V47.6077L158.305 48.5678H158.591L159.017 47.6039V48.7379L159.281 48.7417ZM156.779 48.7417V47.5169H157.286V47.2675H155.996V47.5169H156.504V48.7417H156.779Z" fill="white"/>
<path d="M52.8396 27.3163L41.8623 52.8958H34.7003L29.3008 32.4836C28.9676 31.2286 28.6849 30.7712 27.6894 30.2155C26.0548 29.3839 23.3705 28.5788 21 28.0723L21.1666 27.3163H32.6939C33.4479 27.3149 34.1774 27.5773 34.7502 28.0558C35.3229 28.5343 35.701 29.1973 35.8159 29.9245L38.6706 44.7196L45.7202 27.3314L52.8396 27.3163ZM80.9065 44.5305C80.9375 37.787 71.343 37.4203 71.4127 34.4038C71.4127 33.4815 72.3268 32.5138 74.2829 32.2605C76.5754 32.0438 78.8853 32.4356 80.9685 33.3946L82.1576 27.9778C80.13 27.2347 77.9827 26.8506 75.8168 26.8438C69.1196 26.8438 64.4057 30.3214 64.3669 35.2959C64.3243 38.9739 67.7291 41.0265 70.301 42.2512C72.9388 43.5024 73.822 44.3037 73.8142 45.4302C73.8142 47.1426 71.7071 47.8948 69.7588 47.9288C66.354 47.9779 64.3747 47.0292 62.7866 46.3109L61.5587 51.9167C63.1391 52.6236 66.0674 53.2398 69.0964 53.2776C76.2158 53.2776 80.8716 49.8377 80.8949 44.523M98.5771 52.8731H104.86L99.3905 27.3163H93.6036C92.9848 27.3145 92.3796 27.4935 91.866 27.8304C91.3523 28.1672 90.9538 28.6464 90.7218 29.2063L80.554 52.8958H87.6695L89.0794 49.0779H97.7753L98.5771 52.8731ZM91.0161 43.801L94.5952 34.2413L96.6442 43.8388L91.0161 43.801ZM62.5232 27.3163L56.9183 52.8958H50.1398L55.7486 27.3163H62.5232Z" fill="white"/>
</g>
<defs>
<clipPath id="clip0_5_1905">
<rect width="142" height="42" fill="white" transform="translate(21 19)"/>
</clipPath>
</defs>
</svg>
